<?xml version="1.0" encoding="utf-8"?>
<svg viewBox="100 100 200 200" xmlns="http://www.w3.org/2000/svg">
  <path style="fill: rgb(222, 169, 136);" d="M 115.076 181.728 L 141.012 300 L 171.803 300 L 176.439 268.086 L 185.928 300 L 223.882 299.374 L 232.107 268.085 L 235.901 300 C 234.333 300 264.988 300 265 300 L 287.775 181.728 L 214.394 181.063 L 204.905 234.293 L 193.022 181.141 L 115.076 181.728 Z"/>
  <path style="fill: rgb(198, 105, 71);" d="M 203.639 120.81 C 224.388 63.211 323.747 139.997 294.733 172.75 L 105.587 173.375 C 75.896 139.436 172.741 66.017 203.639 120.81 Z M 249.818 135.828 C 247.023 135.828 244.757 138.07 244.757 140.835 C 244.757 143.6 247.023 145.842 249.818 145.842 C 252.613 145.842 254.879 143.6 254.879 140.835 C 254.879 138.07 252.613 135.828 249.818 135.828 Z M 163.153 134.576 C 160.358 134.576 158.092 136.818 158.092 139.583 C 158.092 142.348 160.358 144.59 163.153 144.59 C 165.948 144.59 168.214 142.348 168.214 139.583 C 168.214 136.818 165.948 134.576 163.153 134.576 Z"/>
</svg>